<?xml version="1.0" encoding="UTF-8" standalone="no"?>
<!-- Created with Inkscape (http://www.inkscape.org/) -->

<svg
   xmlns:dc="http://purl.org/dc/elements/1.1/"
   xmlns:cc="http://creativecommons.org/ns#"
   xmlns:rdf="http://www.w3.org/1999/02/22-rdf-syntax-ns#"
   xmlns:svg="http://www.w3.org/2000/svg"
   xmlns="http://www.w3.org/2000/svg"
   version="1.1"
   width="20.000002"
   height="19.322178"
   id="svg5395">
  <defs
     id="defs5397" />
  <metadata
     id="metadata5400">
    <rdf:RDF>
      <cc:Work
         rdf:about="">
        <dc:format>image/svg+xml</dc:format>
        <dc:type
           rdf:resource="http://purl.org/dc/dcmitype/StillImage" />
        <dc:title></dc:title>
      </cc:Work>
    </rdf:RDF>
  </metadata>
  <g
     transform="translate(-583.08053,-755.56136)"
     id="layer1">
    <path
       d="m 583.88979,774.82627 c -0.17445,-0.0277 -0.38905,-0.0785 -0.47623,-0.10892 -0.33552,-0.11629 -0.20768,-0.3332 0.61515,-1.04637 1.21251,-1.05043 1.69778,-1.69641 1.96366,-2.61388 l 0.0988,-0.34106 -0.36274,-0.34474 c -3.11375,-2.95914 -3.5273,-7.46339 -0.9964,-10.85164 0.36228,-0.48481 1.29075,-1.42619 1.74427,-1.76831 1.90329,-1.43556 4.17714,-2.18999 6.6007,-2.18999 2.83683,0 5.48883,1.04033 7.40451,2.90454 3.08106,2.99832 3.46204,7.41323 0.93256,10.80665 -0.37982,0.50922 -1.29859,1.42827 -1.81035,1.81048 -1.52237,1.13697 -3.23932,1.81687 -5.21705,2.06589 -0.67436,0.0849 -2.20232,0.0646 -2.86624,-0.0369 l -0.54463,-0.084 -0.52201,0.23722 c -1.13253,0.5149 -2.63534,1.05376 -3.62725,1.30066 -1.20823,0.3009 -2.18875,0.38813 -2.93675,0.26121 z m 5.65715,-6.11201 c 1.6234,-0.30783 2.57779,-1.38974 2.77597,-3.14632 0.0277,-0.23768 0.037,-1.06161 0.0323,-2.16886 l -0.0138,-1.78584 c -1.07813,-0.009 -2.15625,-0.0138 -3.23438,-0.0185 0,1.085 0,2.17005 0,3.2551 0.48942,0 0.9789,0 1.46838,0 l 0,0.19568 c 0,0.25752 -0.0969,0.70961 -0.2146,1.00087 -0.18645,0.4622 -0.56738,0.90308 -1.04176,1.20657 l -0.21184,0.13568 0,0.66853 c 0,0.36783 0.0138,0.68045 0.0277,0.69499 0.037,0.037 0.037,0.037 0.41213,-0.037 z m 5.668,-0.0821 c 1.27648,-0.37012 2.0609,-1.10346 2.3918,-2.23683 0.17399,-0.5953 0.19245,-0.87589 0.19291,-2.88761 l 1.4e-4,-1.91524 c -1.07812,0.005 -2.15625,0.0138 -3.23438,0.0185 0,1.07148 0,2.143 0,3.21453 0.49414,0.009 0.98822,0.0138 1.48231,0.023 l -0.023,0.22753 c -0.0882,0.95601 -0.48255,1.65307 -1.20785,2.13525 l -0.27322,0.18184 0,0.66498 c 0,0.36598 0.0138,0.67809 0.0277,0.69411 0.037,0.037 0.2086,0.005 0.64038,-0.12046 z"
       id="path3137"
       style="fill:#000000;fill-opacity:1;fill-rule:nonzero;stroke:none" />
  </g>
</svg>
